<svg id="Layer_1" data-name="Layer 1" xmlns="http://www.w3.org/2000/svg" viewBox="0 0 773.45 658.27">
	<defs>
		<style>.cls-1{fill:#f7931e;}</style>
	</defs>
	<rect class="cls-1" x="494.7" y="84.13" width="89.12" height="148.97"/>
	<path d="M616.71,108.61V257.09H528.08V108.61h88.63m.48-.49H527.6V257.58h89.59V108.12Z" transform="translate(-33.13 -24.23)"/>
	<rect class="cls-1" x="586.48" y="108.36" width="110.45" height="167.98"/>
	<path d="M729.78,132.88v167.4H619.89V132.88H729.78m.56-.57h-111V300.85h111V132.31Z" transform="translate(-33.13 -24.23)"/>
	<rect class="cls-1" x="641.34" y="260.46" width="131.78" height="186.98"/>
	<path d="M805.93,285V471.35H674.8V285H805.93m.65-.65H674.14V472H806.58V284.37Z" transform="translate(-33.13 -24.23)"/>
	<rect class="cls-1" x="431.13" y="451.91" width="153.12" height="205.99"/>
	<path d="M617,476.51V681.76H464.64V476.51H617m.74-.74H463.9V682.5H617.76V475.77Z" transform="translate(-33.13 -24.23)"/>
	<rect class="cls-1" x="281.41" y="255.52" width="174.45" height="224.99"/>
	<path d="M488.58,280.17V504.34H315V280.17H488.58m.83-.83H314.13V505.16H489.41V279.34Z" transform="translate(-33.13 -24.23)"/>
	<rect class="cls-1" x="127.03" y="126.47" width="195.79" height="244"/>
	<path d="M355.49,151.16V394.25H160.62V151.16H355.49m.91-.91H159.7V395.16H356.4V150.25Z" transform="translate(-33.13 -24.23)"/>
	<rect class="cls-1" x="0.5" y="0.5" width="217.12" height="263.01"/>
	<path d="M250.26,25.23v262H34.13v-262H250.26m1-1H33.13v264H251.26v-264Z" transform="translate(-33.13 -24.23)"/>
</svg>