<?xml version="1.0" encoding="utf-8"?>
<!-- Generator: Adobe Illustrator 25.0.0, SVG Export Plug-In . SVG Version: 6.00 Build 0)  -->
<!-- GI: 'user svg' https://www.svgrepo.com/svg/91079/avatar -->
<svg version="1.1" id="Capa_1" xmlns="http://www.w3.org/2000/svg" xmlns:xlink="http://www.w3.org/1999/xlink" x="0px" y="0px"
	 viewBox="0 0 144.8 144.8" style="enable-background:new 0 0 144.8 144.8;" xml:space="preserve">
<style type="text/css">
	.st0{fill:#F5C002;}
	.st1{clip-path:url(#SVGID_2_);}
	.st2{fill:#F1C9A5;}
	.st3{fill:#E4B692;}
	.st4{fill:#303030;}
	.st5{fill:#FB621E;}
	.st6{opacity:0.2;fill:#E53D0C;enable-background:new    ;}
	.st7{fill:#E53D0C;}
	.st8{fill:#FFFFFF;}
</style>
<circle class="st0" cx="72.4" cy="72.4" r="72.4"/>
<g>
	<defs>
		<circle id="SVGID_1_" cx="72.4" cy="72.4" r="72.4"/>
	</defs>
	<clipPath id="SVGID_2_">
		<use xlink:href="#SVGID_1_"  style="overflow:visible;"/>
	</clipPath>
	<g class="st1">
		<g>
			<path class="st2" d="M72.4,40.6v104.2h-41c0,0,2.9-15.6,6.3-27.8c3.1-5.9,17.3-10.3,26.5-12.6v-7.7c-5.6-2.5-10-8-11.9-17.7
				c-6.8-1.6-7.9-15-0.7-16.5C53.3,48.4,61.9,40.6,72.4,40.6z"/>
			<path class="st3" d="M113.4,144.8h-41V40.6c11.8-0.3,19.9,10.9,20.7,21.8c7.5,1.4,6.3,15.2-0.8,16.6c-1.6,7.7-4.9,14.2-11.8,17.5
				v7.9C114.4,112,108.7,122.8,113.4,144.8z"/>
		</g>
		<path class="st4" d="M91.3,81.7c-1.1,3.2-3,7-6.5,7c-4.3,0-7.4-3.5-12.4-3.5c0,0,0,0,0,0c0,0,0,0,0,0c-4.9,0-8,3.5-12.4,3.5
			c-3.5,0-5.4-3.8-6.5-7l-1-6.1v7.3c0,0,1.6,8.6,4.8,10.7c2.6,2.3,10.9,6.2,15,6.2h0c0,0,0,0,0,0c0,0,0,0,0,0h0
			c4.1,0,12.5-3.9,15-6.2c3.1-2.1,4.8-10.7,4.8-10.7v-7.3L91.3,81.7z"/>
		<path class="st4" d="M62.2,43.8c0,0,3.9,15.8,25.6,23.8c-2-3.5-2.4-7.8-2.4-7.8s3.5,3.7,9.3,6.7c3.2-6.3,6.9-15.8-1.5-21
			C84.9,40.3,65,31,62.2,43.8z"/>
		<path class="st4" d="M55,66.3c0,0,2-18.7,8.7-22.7c-5.2-2.9-14.9,5.8-13.9,10.4C50.7,58.7,55,66.3,55,66.3z"/>
		<path class="st5" d="M113.4,144.8h-41h-41c0,0,3.3-19.7,6.3-27.8c2.7-5.2,14.1-9.2,23.1-11.7c0.3,6.1,5.4,11,11.6,11
			c6.2,0,11.3-4.8,11.6-11c9.2,1.8,20.3,6.5,23.1,11.7C112.2,126.2,113.4,144.8,113.4,144.8z"/>
		<path class="st6" d="M60.1,108.3c0.4,6.1,5.7,11,12.3,11c6.6,0,11.9-4.8,12.3-11c8.2,2.1,18.3,5.4,22.8,9.7
			c-0.1-0.3-0.3-0.7-0.4-1c-2.7-5.2-14.1-9.2-23.1-11.7c-0.4,6.1-5.4,11-11.6,11c-6.2,0-11.2-4.8-11.6-11c-9,2.5-20.3,6.5-23.1,11.7
			c-0.1,0.3-0.2,0.6-0.2,0.9C42,113.7,52,110.4,60.1,108.3z"/>
		<path class="st7" d="M57.4,106.3c1.1,7.3,7.4,12.9,15,12.9s13.9-5.6,15-12.9c-1.2-0.4-2.3-0.7-3.4-1c-0.4,6.1-5.4,11-11.6,11
			c-6.2,0-11.2-4.8-11.6-11C59.7,105.6,58.5,105.9,57.4,106.3z"/>
		<path class="st8" d="M75.8,90.7c0,0-0.5-2.2-3.4-2.2c-2.7,0-3.4,2.2-3.4,2.2H75.8z"/>
	</g>
</g>
</svg>
