<svg xmlns="http://www.w3.org/2000/svg" version="1.1" xmlns:xlink="http://www.w3.org/1999/xlink" xmlns:svgjs="http://svgjs.com/svgjs" width="1440" height="1920" preserveAspectRatio="none" viewBox="0 0 1440 1920">
    <g mask="url(&quot;#SvgjsMask1210&quot;)" fill="none">
        <rect width="1440" height="1920" x="0" y="0" fill="url(#SvgjsLinearGradient1211)"></rect>
        <path d="M812 1739L1447 1104" stroke-width="10" stroke="url(#SvgjsLinearGradient1212)" stroke-linecap="round" class="BottomLeft"></path>
        <path d="M456 1795L1297 954" stroke-width="10" stroke="url(#SvgjsLinearGradient1213)" stroke-linecap="round" class="TopRight"></path>
        <path d="M301 494L-64 859" stroke-width="6" stroke="url(#SvgjsLinearGradient1214)" stroke-linecap="round" class="BottomLeft"></path>
        <path d="M590 720L174 1136" stroke-width="8" stroke="url(#SvgjsLinearGradient1213)" stroke-linecap="round" class="TopRight"></path>
        <path d="M295 1855L-431 2581" stroke-width="8" stroke="url(#SvgjsLinearGradient1215)" stroke-linecap="round" class="TopRight"></path>
        <path d="M1167 98L2154 -889" stroke-width="8" stroke="url(#SvgjsLinearGradient1216)" stroke-linecap="round" class="TopRight"></path>
        <path d="M1322 803L2248 -123" stroke-width="6" stroke="url(#SvgjsLinearGradient1217)" stroke-linecap="round" class="BottomLeft"></path>
        <path d="M351 1720L-459 2530" stroke-width="10" stroke="url(#SvgjsLinearGradient1213)" stroke-linecap="round" class="TopRight"></path>
        <path d="M891 1901L425 2367" stroke-width="8" stroke="url(#SvgjsLinearGradient1216)" stroke-linecap="round" class="TopRight"></path>
        <path d="M854 1789L-187 2830" stroke-width="10" stroke="url(#SvgjsLinearGradient1217)" stroke-linecap="round" class="BottomLeft"></path>
        <path d="M542 1273L-189 2004" stroke-width="8" stroke="url(#SvgjsLinearGradient1215)" stroke-linecap="round" class="TopRight"></path>
        <path d="M265 173L-281 719" stroke-width="10" stroke="url(#SvgjsLinearGradient1217)" stroke-linecap="round" class="BottomLeft"></path>
        <path d="M1298 1520L2203 615" stroke-width="10" stroke="url(#SvgjsLinearGradient1213)" stroke-linecap="round" class="TopRight"></path>
        <path d="M829 595L186 1238" stroke-width="10" stroke="url(#SvgjsLinearGradient1213)" stroke-linecap="round" class="TopRight"></path>
        <path d="M473 13L-253 739" stroke-width="10" stroke="url(#SvgjsLinearGradient1215)" stroke-linecap="round" class="TopRight"></path>
        <path d="M903 59L1287 -325" stroke-width="10" stroke="url(#SvgjsLinearGradient1212)" stroke-linecap="round" class="BottomLeft"></path>
        <path d="M336 343L-523 1202" stroke-width="10" stroke="url(#SvgjsLinearGradient1212)" stroke-linecap="round" class="BottomLeft"></path>
        <path d="M547 1765L1509 803" stroke-width="6" stroke="url(#SvgjsLinearGradient1216)" stroke-linecap="round" class="TopRight"></path>
        <path d="M356 1786L779 1363" stroke-width="6" stroke="url(#SvgjsLinearGradient1214)" stroke-linecap="round" class="BottomLeft"></path>
        <path d="M35 1877L-882 2794" stroke-width="10" stroke="url(#SvgjsLinearGradient1216)" stroke-linecap="round" class="TopRight"></path>
        <path d="M1348 1206L647 1907" stroke-width="6" stroke="url(#SvgjsLinearGradient1213)" stroke-linecap="round" class="TopRight"></path>
        <path d="M1203 761L149 1815" stroke-width="8" stroke="url(#SvgjsLinearGradient1213)" stroke-linecap="round" class="TopRight"></path>
        <path d="M1418 1569L747 2240" stroke-width="8" stroke="url(#SvgjsLinearGradient1213)" stroke-linecap="round" class="TopRight"></path>
        <path d="M487 1646L-397 2530" stroke-width="8" stroke="url(#SvgjsLinearGradient1213)" stroke-linecap="round" class="TopRight"></path>
        <path d="M704 997L-92 1793" stroke-width="6" stroke="url(#SvgjsLinearGradient1213)" stroke-linecap="round" class="TopRight"></path>
        <path d="M862 1199L135 1926" stroke-width="8" stroke="url(#SvgjsLinearGradient1212)" stroke-linecap="round" class="BottomLeft"></path>
        <path d="M1284 1260L264 2280" stroke-width="8" stroke="url(#SvgjsLinearGradient1215)" stroke-linecap="round" class="TopRight"></path>
        <path d="M228 376L-226 830" stroke-width="6" stroke="url(#SvgjsLinearGradient1212)" stroke-linecap="round" class="BottomLeft"></path>
        <path d="M979 374L2010 -657" stroke-width="10" stroke="url(#SvgjsLinearGradient1215)" stroke-linecap="round" class="TopRight"></path>
        <path d="M308 95L918 -515" stroke-width="10" stroke="url(#SvgjsLinearGradient1214)" stroke-linecap="round" class="BottomLeft"></path>
        <path d="M32 385L666 -249" stroke-width="6" stroke="url(#SvgjsLinearGradient1213)" stroke-linecap="round" class="TopRight"></path>
        <path d="M1033 390L1960 -537" stroke-width="10" stroke="url(#SvgjsLinearGradient1215)" stroke-linecap="round" class="TopRight"></path>
        <path d="M282 1310L-598 2190" stroke-width="10" stroke="url(#SvgjsLinearGradient1216)" stroke-linecap="round" class="TopRight"></path>
        <path d="M893 307L1516 -316" stroke-width="6" stroke="url(#SvgjsLinearGradient1217)" stroke-linecap="round" class="BottomLeft"></path>
        <path d="M664 1389L1648 405" stroke-width="10" stroke="url(#SvgjsLinearGradient1217)" stroke-linecap="round" class="BottomLeft"></path>
        <path d="M397 1434L894 937" stroke-width="8" stroke="url(#SvgjsLinearGradient1213)" stroke-linecap="round" class="TopRight"></path>
        <path d="M986 1601L2016 571" stroke-width="10" stroke="url(#SvgjsLinearGradient1212)" stroke-linecap="round" class="BottomLeft"></path>
        <path d="M501 1634L1531 604" stroke-width="6" stroke="url(#SvgjsLinearGradient1216)" stroke-linecap="round" class="TopRight"></path>
        <path d="M1144 1719L2180 683" stroke-width="8" stroke="url(#SvgjsLinearGradient1213)" stroke-linecap="round" class="TopRight"></path>
        <path d="M770 774L1353 191" stroke-width="10" stroke="url(#SvgjsLinearGradient1217)" stroke-linecap="round" class="BottomLeft"></path>
        <path d="M222 1735L-297 2254" stroke-width="10" stroke="url(#SvgjsLinearGradient1212)" stroke-linecap="round" class="BottomLeft"></path>
        <path d="M616 1814L1661 769" stroke-width="10" stroke="url(#SvgjsLinearGradient1217)" stroke-linecap="round" class="BottomLeft"></path>
        <path d="M255 1762L-118 2135" stroke-width="10" stroke="url(#SvgjsLinearGradient1212)" stroke-linecap="round" class="BottomLeft"></path>
        <path d="M380 439L-64 883" stroke-width="8" stroke="url(#SvgjsLinearGradient1213)" stroke-linecap="round" class="TopRight"></path>
        <path d="M135 946L-384 1465" stroke-width="10" stroke="url(#SvgjsLinearGradient1216)" stroke-linecap="round" class="TopRight"></path>
        <path d="M63 1347L481 929" stroke-width="8" stroke="url(#SvgjsLinearGradient1217)" stroke-linecap="round" class="BottomLeft"></path>
        <path d="M1258 984L1707 535" stroke-width="6" stroke="url(#SvgjsLinearGradient1214)" stroke-linecap="round" class="BottomLeft"></path>
        <path d="M90 1082L977 195" stroke-width="6" stroke="url(#SvgjsLinearGradient1213)" stroke-linecap="round" class="TopRight"></path>
        <path d="M663 1706L-122 2491" stroke-width="8" stroke="url(#SvgjsLinearGradient1216)" stroke-linecap="round" class="TopRight"></path>
        <path d="M518 772L-124 1414" stroke-width="6" stroke="url(#SvgjsLinearGradient1214)" stroke-linecap="round" class="BottomLeft"></path>
        <path d="M1319 1917L698 2538" stroke-width="6" stroke="url(#SvgjsLinearGradient1216)" stroke-linecap="round" class="TopRight"></path>
        <path d="M95 1826L716 1205" stroke-width="10" stroke="url(#SvgjsLinearGradient1215)" stroke-linecap="round" class="TopRight"></path>
        <path d="M624 1069L-132 1825" stroke-width="6" stroke="url(#SvgjsLinearGradient1214)" stroke-linecap="round" class="BottomLeft"></path>
        <path d="M821 1105L1624 302" stroke-width="10" stroke="url(#SvgjsLinearGradient1215)" stroke-linecap="round" class="TopRight"></path>
        <path d="M1412 1536L2066 882" stroke-width="6" stroke="url(#SvgjsLinearGradient1217)" stroke-linecap="round" class="BottomLeft"></path>
        <path d="M1386 1406L419 2373" stroke-width="8" stroke="url(#SvgjsLinearGradient1216)" stroke-linecap="round" class="TopRight"></path>
        <path d="M1196 371L633 934" stroke-width="10" stroke="url(#SvgjsLinearGradient1213)" stroke-linecap="round" class="TopRight"></path>
        <path d="M1345 704L632 1417" stroke-width="8" stroke="url(#SvgjsLinearGradient1215)" stroke-linecap="round" class="TopRight"></path>
        <path d="M71 828L643 256" stroke-width="6" stroke="url(#SvgjsLinearGradient1212)" stroke-linecap="round" class="BottomLeft"></path>
        <path d="M1260 1413L1860 813" stroke-width="6" stroke="url(#SvgjsLinearGradient1213)" stroke-linecap="round" class="TopRight"></path>
    </g>
    <defs>
        <mask id="SvgjsMask1210">
            <rect width="1440" height="1920" fill="#ffffff"></rect>
        </mask>
        <linearGradient x1="-8.33%" y1="6.25%" x2="108.33%" y2="93.75%" gradientUnits="userSpaceOnUse" id="SvgjsLinearGradient1211">
            <stop stop-color="#0e2a47" offset="0"></stop>
            <stop stop-color="#00459e" offset="1"></stop>
        </linearGradient>
        <linearGradient x1="100%" y1="0%" x2="0%" y2="100%" id="SvgjsLinearGradient1212">
            <stop stop-color="rgba(157, 181, 53, 0)" offset="0"></stop>
            <stop stop-color="rgba(157, 181, 53, 1)" offset="1"></stop>
        </linearGradient>
        <linearGradient x1="0%" y1="100%" x2="100%" y2="0%" id="SvgjsLinearGradient1213">
            <stop stop-color="rgba(157, 181, 53, 0)" offset="0"></stop>
            <stop stop-color="rgba(157, 181, 53, 1)" offset="1"></stop>
        </linearGradient>
        <linearGradient x1="100%" y1="0%" x2="0%" y2="100%" id="SvgjsLinearGradient1214">
            <stop stop-color="rgba(28, 83, 142, 0)" offset="0"></stop>
            <stop stop-color="#1c538e" offset="1"></stop>
        </linearGradient>
        <linearGradient x1="0%" y1="100%" x2="100%" y2="0%" id="SvgjsLinearGradient1215">
            <stop stop-color="rgba(28, 83, 142, 0)" offset="0"></stop>
            <stop stop-color="#1c538e" offset="1"></stop>
        </linearGradient>
        <linearGradient x1="0%" y1="100%" x2="100%" y2="0%" id="SvgjsLinearGradient1216">
            <stop stop-color="rgba(53, 63, 181, 0)" offset="0"></stop>
            <stop stop-color="rgba(53, 63, 181, 1)" offset="1"></stop>
        </linearGradient>
        <linearGradient x1="100%" y1="0%" x2="0%" y2="100%" id="SvgjsLinearGradient1217">
            <stop stop-color="rgba(53, 63, 181, 0)" offset="0"></stop>
            <stop stop-color="rgba(53, 63, 181, 1)" offset="1"></stop>
        </linearGradient>
    </defs>
</svg>